# xmcd
# 
# Track frame offsets:
#     150
#     12359
#     24623
#     33632
#     44557
#     56115
#     66204
#     78591
#     92935
#     103096
#     113528
#     125320
#     137578
#     150204
#     163995
#     179834
#     193589
#     208122
# 
# Disc length: 2927
# 
# Revision: 1
# Processed by: cddbd v1.5.2PL0 Copyright (c) Steve Scherf et al.
# Submitted via: BonkEnc v1.0rc1
# 
DISCID=020b6d12
DTITLE=Various Artist - Best of Country
DYEAR=1999
DGENRE=Country
TTITLE0=Kenny Rogers - Elvira
TTITLE1=Freddy Fender - Wasted days and wasted nights
TTITLE2=Ricky Nelson - It's late
TTITLE3=Tom Jones - Take it to the Limit
TTITLE4=Brenda Lee - Silver threads and golden needles
TTITLE5=Wanda Jackson - Kansas City
TTITLE6=The Platters - Twilight time
TTITLE7=Al Martino - Medley
TTITLE8=Loretta Lynn - You're lookin' at country
TTITLE9=The Fortunes - Don't throw Your love away
TTITLE10=Don Williams - On her way to be a woman
TTITLE11=Jim Reeves - Your old loveletters
TTITLE12=Charlie Pride - Help me make it through the night
TTITLE13=George Jones - A good year for the roses
TTITLE14=Mr. Acer Bilk - To all the girls I loved before
TTITLE15=Willie Nelson - Home is where you're happy
TTITLE16=Andy Lloyd - Fast as You
TTITLE17=The full moon Guitars - Achy Breaky Heart
EXTD=
EXTT0=
EXTT1=
EXTT2=
EXTT3=
EXTT4=
EXTT5=
EXTT6=
EXTT7=
EXTT8=
EXTT9=
EXTT10=
EXTT11=
EXTT12=
EXTT13=
EXTT14=
EXTT15=
EXTT16=
EXTT17=
PLAYORDER=
